# xmcd
#
# Track frame offsets: 
#        150
#        13112
#        25931
#        37495
#        48985
#        59595
#        72357
#        85792
#        96375
#        108746
#        121166
#        132365
#        142674
#        156694
#        170568
#        184040
#        196833
#        209240
#        221253
#        232232
#        243958
#        255498
#        266058
#        278821
#        291037
#
# Disc length: 4046 seconds
#
# Revision: 3
# Processed by: cddbd v1.5.2PL0 Copyright (c) Steve Scherf et al.
# Submitted via: ExactAudioCopyFreeDBPlugin 1.0
#
DISCID=870fcc19
DTITLE=Various Artist - Rhythm 'n' Blues:  Early Doo-Wop
DYEAR=2005
DGENRE=Rhythm and Blues
TTITLE0=The Mills Brothers - Smack Dab in the Middle
TTITLE1=The Larks - Rockin' in the Rocket Room
TTITLE2=The Spaniels - Baby, It's You
TTITLE3=The Four Buddies - Ooh Oh
TTITLE4=The Five Keys - Hucklebuck with Jimmy
TTITLE5=The Swallows - Roll, Roll, Pretty Baby
TTITLE6=The Harptones - A Sunday Kind of Love
TTITLE7=Big John and The Buzzards - Your Cash Ain't Nothin' But Trash
TTITLE8=The Ravens - Midnight Blues
TTITLE9=Little Esther and The Dominoes - The Deacon Moves In
TTITLE10=The Crickets - Your Love
TTITLE11=The Hawketts - Mardi Gras Mambo
TTITLE12=The Do Ray Mi Trio - Saturday Night Fish Fry
TTITLE13=The Treniers - It Rocks! It Rolls! It Swings!
TTITLE14=Don Julian and The Meadowlarks - Heaven and Paradise
TTITLE15=The Marigolds - Why Don't You
TTITLE16=The Midnighters - Work with Me, Annie
TTITLE17=The Five Crowns - I Don't Have to Hunt No More
TTITLE18=The Ebonaires - Lawd, Lawd, Lawd
TTITLE19=The Lamplighters - Ride, Jockey, Ride
TTITLE20=The Flamingos - Jump Children
TTITLE21=The Checkers - White Cliffs of Dover
TTITLE22=The Blenders - Don't Play Around with Love
TTITLE23=The Feathers - Love Only You
TTITLE24=The Moonglows - Secret Love
EXTD=YEAR: 2005
EXTT0=
EXTT1=
EXTT2=
EXTT3=
EXTT4=
EXTT5=
EXTT6=
EXTT7=
EXTT8=
EXTT9=
EXTT10=
EXTT11=
EXTT12=
EXTT13=
EXTT14=
EXTT15=
EXTT16=
EXTT17=
EXTT18=
EXTT19=
EXTT20=
EXTT21=
EXTT22=
EXTT23=
EXTT24=
PLAYORDER=
